<svg xmlns="http://www.w3.org/2000/svg" width="14.229" height="14.229" viewBox="0 0 14.229 14.229">
  <path id="Icon" d="M13.72,14.229a.519.519,0,0,1-.361-.15L9.118,9.964a5.777,5.777,0,0,1-3.415,1.1A5.626,5.626,0,0,1,0,5.533,5.626,5.626,0,0,1,5.7,0a5.626,5.626,0,0,1,5.7,5.533A5.435,5.435,0,0,1,9.883,9.289l4.2,4.081a.5.5,0,0,1-.361.86ZM5.7,1A4.608,4.608,0,0,0,1.032,5.533,4.608,4.608,0,0,0,5.7,10.065a4.714,4.714,0,0,0,3.3-1.327,4.435,4.435,0,0,0,1.368-3.2A4.608,4.608,0,0,0,5.7,1Z" fill="#8e919e" opacity="0.7"/>
</svg>
